<svg width="39" height="63" viewBox="0 0 39 63" fill="none" xmlns="http://www.w3.org/2000/svg">
<g id="Image">
<path id="Vector" d="M27.5565 62.028L22.9399 61.9927C22.9399 61.9485 22.9708 57.4147 22.9708 54.5866C22.9708 50.9057 24.6739 49.0674 26.1042 48.1703C27.6665 47.1938 29.3124 47.101 29.8846 47.0745C30.9276 46.8668 31.3853 46.1995 31.2488 45.086C31.086 43.7514 31.2752 42.8588 31.3324 42.6158C31.35 42.5407 31.3765 42.4655 31.4029 42.3904L31.2268 42.2358C30.6987 41.7762 30.4127 41.1001 30.4347 40.4019C30.4611 39.7214 30.7823 39.0851 31.3193 38.6653C31.1476 38.3338 31.0552 37.9671 31.0552 37.5915V36.3453C31.0552 35.5853 31.4249 34.8783 32.041 34.4452L32.93 33.8221L29.7305 30.1677C29.22 29.5844 29.022 28.8288 29.2244 28.082C29.2596 27.9273 29.5281 26.6193 29.9374 22.4081C30.263 19.0497 28.4279 16.6635 26.8303 15.2495C26.6851 15.1213 26.5443 14.9976 26.4078 14.8783C24.2514 13.0002 22.9399 11.5508 22.9399 7.29099V0.658203H27.5565V7.29099C27.5565 9.74349 27.9173 10.0572 29.4313 11.3741C29.5765 11.4978 29.7261 11.6304 29.8802 11.7674C31.8518 13.5084 35.0776 17.2645 34.5319 22.8544C34.281 25.4174 34.0786 26.9949 33.9334 27.945L38.101 32.7086C38.5367 33.2035 38.7392 33.8619 38.6599 34.5159C38.5807 35.1699 38.2286 35.7621 37.6873 36.1377L35.9446 37.3573L36.3539 38.0069C36.8644 38.8199 36.8115 39.8407 36.279 40.5875C36.8247 41.3564 36.8644 42.4081 36.3187 43.2256L35.7994 44.0033C35.7994 44.1403 35.8038 44.3126 35.8302 44.5203C36.2703 48.1306 34.1006 51.0647 30.5491 51.6613C30.3907 51.6878 30.2586 51.6966 30.1266 51.7011C28.0142 51.8027 27.5873 52.8809 27.5873 54.5822C27.5873 57.428 27.5565 61.975 27.5565 62.0192" fill="white"/>
<path id="Vector_2" d="M12.7164 62.0143H8.09985V55.7969C8.09985 49.1464 10.1639 45.2843 11.9814 41.8729C13.5746 38.8901 14.9476 36.3139 14.9476 32.0054C14.9476 27.697 13.6098 25.2268 12.0607 22.3899C10.2035 18.9873 8.09985 15.1341 8.09985 7.91797V0.662109H12.7164V7.91797C12.7164 13.9498 14.3667 16.9679 16.1095 20.1628C17.8082 23.2737 19.5642 26.4906 19.5642 32.0054C19.5642 37.5202 17.7774 40.8256 16.0523 44.0602C14.3359 47.2728 12.7164 50.3086 12.7164 55.7925V62.0099V62.0143Z" fill="white"/>
<path id="Vector_3" d="M5.35774 0.666016H0.741211V62.0138H5.35774V0.666016Z" fill="white"/>
</g>
</svg>
