<svg width="24" height="25" viewBox="0 0 24 25" fill="none" xmlns="http://www.w3.org/2000/svg">
<path d="M14.2 3.67578C12.9734 3.67578 11.797 4.16306 10.9296 5.03041C10.0623 5.89777 9.575 7.07416 9.575 8.30078V10.8758H7.1C6.97574 10.8758 6.875 10.9765 6.875 11.1008V14.5008C6.875 14.625 6.97574 14.7258 7.1 14.7258H9.575V21.7008C9.575 21.825 9.67574 21.9258 9.8 21.9258H13.2C13.3243 21.9258 13.425 21.825 13.425 21.7008V14.7258H15.9219C16.0252 14.7258 16.1152 14.6555 16.1402 14.5554L16.9902 11.1554C17.0257 11.0133 16.9183 10.8758 16.7719 10.8758H13.425V8.30078C13.425 8.09524 13.5067 7.89811 13.652 7.75277C13.7973 7.60743 13.9945 7.52578 14.2 7.52578H16.8C16.9243 7.52578 17.025 7.42505 17.025 7.30078V3.90078C17.025 3.77652 16.9243 3.67578 16.8 3.67578H14.2Z" fill="black"/>
</svg>
