<svg width="24" height="25" viewBox="0 0 24 25" fill="none" xmlns="http://www.w3.org/2000/svg">
<path d="M4.75 2.67578C3.57639 2.67578 2.625 3.62718 2.625 4.80078C2.625 5.97439 3.57639 6.92578 4.75 6.92578C5.9236 6.92578 6.875 5.97439 6.875 4.80078C6.875 3.62718 5.9236 2.67578 4.75 2.67578Z" fill="black"/>
<path d="M2.75 8.67578C2.68096 8.67578 2.625 8.73175 2.625 8.80078V21.8008C2.625 21.8698 2.68096 21.9258 2.75 21.9258H6.75C6.81904 21.9258 6.875 21.8698 6.875 21.8008V8.80078C6.875 8.73175 6.81904 8.67578 6.75 8.67578H2.75Z" fill="black"/>
<path d="M9.25 8.67578C9.18096 8.67578 9.125 8.73175 9.125 8.80078V21.8008C9.125 21.8698 9.18096 21.9258 9.25 21.9258H13.25C13.319 21.9258 13.375 21.8698 13.375 21.8008V14.8008C13.375 14.3035 13.5725 13.8266 13.9242 13.475C14.2758 13.1233 14.7527 12.9258 15.25 12.9258C15.7473 12.9258 16.2242 13.1233 16.5758 13.475C16.9275 13.8266 17.125 14.3035 17.125 14.8008V21.8008C17.125 21.8698 17.181 21.9258 17.25 21.9258H21.25C21.319 21.9258 21.375 21.8698 21.375 21.8008V13.181C21.375 10.7543 19.2644 8.85578 16.8498 9.07528C16.1052 9.14298 15.369 9.32809 14.6815 9.62273L13.375 10.1826V8.80078C13.375 8.73175 13.319 8.67578 13.25 8.67578H9.25Z" fill="black"/>
</svg>
