<svg xmlns="http://www.w3.org/2000/svg" width="24" height="25" viewBox="0 0 24 25" fill="none">
  <path fill-rule="evenodd" clip-rule="evenodd" d="M18.4831 20.591L18.4838 20.5893L18.5011 20.5458L21.4999 5.42671V5.3776C21.4999 5.0009 21.3608 4.67204 21.0579 4.47478C20.7928 4.30212 20.488 4.28982 20.2743 4.30604C20.0483 4.32319 19.8352 4.37961 19.6876 4.42657C19.6117 4.45073 19.5482 4.47401 19.5028 4.49162C19.48 4.50045 19.4615 4.50795 19.448 4.51354L19.4348 4.51909L2.71502 11.078L2.71042 11.0797C2.70139 11.083 2.68944 11.0874 2.67502 11.093C2.64627 11.1042 2.60713 11.1202 2.56115 11.1411C2.47087 11.182 2.34613 11.2451 2.21963 11.3318C2.00477 11.4789 1.59566 11.8272 1.66474 12.3795C1.72196 12.8369 2.03727 13.1274 2.24983 13.2778C2.36378 13.3584 2.4728 13.4165 2.55262 13.4545C2.59307 13.4738 2.62743 13.4885 2.65302 13.499C2.66585 13.5042 2.67657 13.5084 2.68487 13.5115L2.6955 13.5155L2.70229 13.518L5.62753 14.5028C5.61766 14.6863 5.63586 14.8735 5.68453 15.0581L7.14982 20.6165C7.32355 21.2756 7.91978 21.7346 8.60135 21.7342C9.21228 21.7337 9.75411 21.3641 9.98429 20.8127L12.272 18.3666L16.2009 21.3789L16.2568 21.4032C16.6138 21.559 16.9473 21.6084 17.2522 21.5667C17.5567 21.5251 17.7987 21.3974 17.9804 21.252C18.1593 21.1089 18.2819 20.9474 18.359 20.8258C18.3981 20.764 18.4273 20.7097 18.4476 20.6689C18.4578 20.6484 18.4658 20.631 18.4718 20.6175L18.4793 20.6L18.482 20.5936L18.4831 20.591ZM7.13493 14.6757C7.10163 14.5494 7.15391 14.416 7.2642 14.346L17.1862 8.0451C17.1862 8.0451 17.7698 7.6908 17.7489 8.0451C17.7489 8.0451 17.8531 8.10767 17.5404 8.39939C17.2438 8.67647 10.4687 15.2175 9.78316 15.8794C9.74359 15.9176 9.71997 15.9614 9.70602 16.0147L8.60022 20.2341L7.13493 14.6757Z" fill="black"/>
</svg>