<svg width="24" height="25" viewBox="0 0 24 25" fill="none" xmlns="http://www.w3.org/2000/svg">
<path d="M21.8098 7.02802C21.8677 6.94725 21.7821 6.84296 21.6894 6.87889C21.0307 7.13422 20.3423 7.30649 19.64 7.39138C20.4219 6.92426 21.0253 6.21318 21.3599 5.37131C21.394 5.28555 21.3003 5.20897 21.2195 5.25358C20.4928 5.65492 19.7091 5.94392 18.8949 6.11035C18.8608 6.11732 18.8257 6.10572 18.8018 6.08047C18.1908 5.4358 17.3866 5.00656 16.5098 4.85823C15.6147 4.70679 14.6946 4.85674 13.8938 5.28457C13.0931 5.7124 12.457 6.39391 12.0853 7.22222C11.7319 8.00978 11.6365 8.88769 11.8108 9.73082C11.8243 9.79623 11.7731 9.858 11.7065 9.85386C10.1224 9.75547 8.57469 9.33414 7.15868 8.61524C5.74627 7.89817 4.49554 6.90061 3.48267 5.68408C3.43772 5.63009 3.35252 5.63707 3.31977 5.69923C3.0046 6.29729 2.83958 6.96389 2.84003 7.64138C2.83875 8.31576 3.00425 8.98 3.32178 9.57495C3.63932 10.1699 4.09905 10.6771 4.66003 11.0514C4.0651 11.0352 3.48178 10.8881 2.95128 10.6215C2.88291 10.5871 2.8009 10.636 2.80446 10.7125C2.84583 11.6017 3.17228 12.4944 3.73734 13.1793C4.33866 13.9082 5.17328 14.407 6.10003 14.5914C5.74328 14.6999 5.3729 14.7572 5.00003 14.7614C4.79709 14.759 4.59454 14.744 4.39356 14.7166C4.31904 14.7064 4.2582 14.7772 4.28428 14.8477C4.5607 15.5952 5.04903 16.2474 5.6911 16.7235C6.37755 17.2326 7.2056 17.5149 8.06003 17.5314C6.61723 18.6666 4.83591 19.2862 3.00003 19.2914C2.81138 19.292 2.62282 19.2859 2.43471 19.2731C2.3287 19.2658 2.27995 19.4071 2.37132 19.4613C4.16009 20.5228 6.20462 21.0839 8.29003 21.0814C9.82972 21.0974 11.3572 20.8064 12.7831 20.2255C14.2091 19.6445 15.5051 18.7853 16.5952 17.6979C17.6854 16.6105 18.548 15.3168 19.1326 13.8923C19.7172 12.4678 20.0121 10.9411 20 9.40138V8.92155C20 8.88998 20.015 8.86029 20.0402 8.84127C20.7184 8.32912 21.3149 7.71769 21.8098 7.02802Z" fill="black"/>
</svg>
