<svg xmlns="http://www.w3.org/2000/svg" width="24" height="25" viewBox="0 0 24 25" fill="none">
  <path d="M9.92051 8.20844L9.9208 8.2091C10.0521 8.50161 10.2695 9.03102 10.4429 9.45337L10.4463 9.46173C10.5148 9.62852 10.5766 9.77895 10.6247 9.89469C10.6488 9.95262 10.669 10.0005 10.6845 10.0367C10.6983 10.0689 10.7053 10.0843 10.7073 10.0887C10.7078 10.0899 10.708 10.0903 10.7079 10.0901C10.8081 10.2895 10.9102 10.6126 10.7302 10.9816L9.92051 8.20844ZM9.92051 8.20844C9.79974 7.94038 9.64305 7.72884 9.42222 7.60083M9.92051 8.20844L9.42222 7.60083M13.254 14.7657C13.1997 14.7387 13.1318 14.7095 13.0692 14.6824L13.0601 14.6785L13.059 14.678C12.7137 14.5291 12.0551 14.2449 11.291 13.5647L11.2902 13.5639C10.6439 12.9912 10.181 12.284 10.0001 11.9836C10.0873 11.8953 10.1807 11.7823 10.2562 11.6911L10.2652 11.6802C10.3145 11.6207 10.3589 11.567 10.4006 11.5192L10.4007 11.5191C10.5584 11.3379 10.6307 11.1879 10.6991 11.0458L10.703 11.0379L10.703 11.0378L10.7302 10.9816L9.95436 11.9112L9.92563 11.9278L9.92537 11.928L9.52392 12.1607M13.254 14.7657L13.2448 14.7842C13.2493 14.779 13.2539 14.7736 13.2587 14.7681M13.254 14.7657C13.254 14.7657 13.2539 14.7657 13.2539 14.7657L13.2446 14.7844C13.2324 14.7986 13.2213 14.8116 13.2114 14.8231L13.2113 14.8231C13.1985 14.838 13.1988 14.8341 13.2134 14.8249C13.2134 14.8249 13.2134 14.8249 13.2134 14.8248C13.2139 14.8245 13.2145 14.8242 13.2151 14.8238C13.219 14.8214 13.2235 14.8189 13.2287 14.8163L13.2212 14.8315L13.2212 14.8315L13.0312 15.2134M13.254 14.7657C13.2556 14.7665 13.2571 14.7673 13.2587 14.7681M13.2587 14.7681C13.2993 14.788 13.3216 14.795 13.3296 14.7971C13.3307 14.7973 13.3312 14.7975 13.3312 14.7975C13.3312 14.7975 13.3171 14.7946 13.2932 14.7974C13.2791 14.7991 13.2643 14.8024 13.2497 14.8076C13.2419 14.8103 13.2349 14.8133 13.2288 14.8163L13.2212 14.8316L13.2212 14.8316L13.0312 15.2134M13.2587 14.7681C13.4477 14.5478 13.85 14.0743 13.9909 13.867M13.0312 15.2134C13.2885 15.3414 13.4418 15.3217 13.5902 15.1494C13.7387 14.977 14.2333 14.4009 14.4065 14.1449M13.0312 15.2134C12.9894 15.1926 12.9324 15.168 12.862 15.1376C12.4997 14.9813 11.7829 14.672 10.9586 13.9381C10.1918 13.2587 9.6724 12.4167 9.52392 12.1607M13.9909 13.867C13.9901 13.8681 13.9894 13.8692 13.9886 13.8704L14.4065 14.1449M13.9909 13.867C13.9914 13.8662 13.9919 13.8655 13.9924 13.8647L14.4065 14.1449M13.9909 13.867C14.1286 13.6588 14.329 13.4884 14.6114 13.4551C14.8384 13.4284 15.0465 13.5061 15.1556 13.5468L15.16 13.5485L15.1601 13.5485C15.3062 13.603 15.7095 13.7941 16.0752 13.9701C16.4553 14.1531 16.8382 14.3412 16.969 14.4063L16.9691 14.4063C17.0162 14.4297 17.0606 14.451 17.1049 14.4723L16.8888 14.9232M14.4065 14.1449C14.5747 13.8889 14.7478 13.9283 14.9853 14.0169C15.2227 14.1055 16.4891 14.7259 16.7463 14.8539C16.7971 14.8792 16.8447 14.902 16.8888 14.9232M9.52392 12.1607L9.92529 11.9279L9.92554 11.9277L9.95433 11.911L10.0236 11.1907C9.97698 11.2443 9.92839 11.303 9.87998 11.3615C9.79484 11.4644 9.71025 11.5666 9.63774 11.6388C9.50914 11.7667 9.37553 11.9047 9.52392 12.1607ZM16.8888 14.9232L17.1049 14.4723L17.1171 14.4782C17.1965 14.5162 17.2919 14.5619 17.3733 14.6116C17.4583 14.6635 17.5835 14.7517 17.671 14.8992M16.8888 14.9232C17.0677 15.009 17.1894 15.0673 17.241 15.1543M17.671 14.8992L17.0926 16.3753C17.3053 15.7747 17.3053 15.2626 17.241 15.1543M17.671 14.8992C17.7506 15.0333 17.767 15.1878 17.7733 15.267C17.7816 15.373 17.7798 15.4941 17.7688 15.6228C17.7467 15.8814 17.6846 16.2014 17.5639 16.5422L17.5627 16.5457C17.3959 17.0061 16.9606 17.3756 16.5892 17.6149C16.2114 17.8582 15.751 18.0611 15.3982 18.0942M17.671 14.8992C17.671 14.8991 17.6709 14.8991 17.6709 14.899L17.241 15.1543M17.241 15.1543L15.3982 18.0942M15.3982 18.0942C15.3609 18.0977 15.3228 18.1023 15.2756 18.108L15.2155 17.6116L15.2756 18.108C15.0357 18.137 14.7353 18.1722 14.2297 18.0874C13.7426 18.0057 13.0761 17.8151 12.0764 17.4216C9.50628 16.4108 7.83474 13.9397 7.50095 13.4463L7.4953 13.4379L7.90942 13.1577L7.4953 13.4379L7.46461 13.3927L7.45627 13.3806C7.45576 13.3799 7.45539 13.3794 7.45514 13.3791L7.45088 13.3734L7.45085 13.3733L7.4508 13.3732C7.37167 13.2674 7.08919 12.8894 6.82593 12.3691C6.56604 11.8555 6.30318 11.1616 6.30318 10.4276C6.30318 9.04229 6.9995 8.30262 7.2936 7.9918L7.2936 7.9918C7.31098 7.97344 7.32482 7.9588 7.33694 7.94573C7.33694 7.94573 7.33694 7.94573 7.33694 7.94573L15.3982 18.0942ZM9.42222 7.60083C9.21127 7.47856 9.0043 7.47342 8.90962 7.47108M9.42222 7.60083L8.90962 7.47108M8.90962 7.47108C8.90652 7.471 8.90353 7.47092 8.90067 7.47085L8.90962 7.47108ZM7.51626 20.9824C7.40475 20.922 7.27446 20.9062 7.15176 20.9383L2.71214 22.0979L3.89671 17.7981C3.93232 17.6688 3.91453 17.5307 3.84734 17.4147C3.01903 15.9845 2.58339 14.3628 2.58399 12.7123V12.7121C2.58399 7.52534 6.82972 3.30078 12.0419 3.30078C14.5761 3.30078 16.9474 4.28242 18.7334 6.06006C20.5188 7.8372 21.4999 10.201 21.4999 12.717C21.4999 17.9037 17.2542 22.1283 12.0419 22.1283H12.037C10.4534 22.1283 8.89782 21.7307 7.51626 20.9824Z" fill="black" stroke="black" stroke-linejoin="round"/>
</svg>